<svg id="Layer_1" data-name="Layer 1" xmlns="http://www.w3.org/2000/svg" xmlns:xlink="http://www.w3.org/1999/xlink" viewBox="0 0 39.81 50.57"><defs><style>.cls-1{fill:#fff;stroke-width:0.51px;}.cls-1,.cls-2,.cls-3{stroke:#000;stroke-miterlimit:10;}.cls-2,.cls-3{stroke-width:0.06px;}.cls-2{fill:url(#linear-gradient);}.cls-3{fill:url(#linear-gradient-2);}.cls-4{fill:#fcfcfc;opacity:0.13;}</style><linearGradient id="linear-gradient" x1="666.76" y1="354.74" x2="693.15" y2="354.74" gradientUnits="userSpaceOnUse"><stop offset="0" stop-color="#8f542a"/><stop offset="0.51" stop-color="#7d4723"/><stop offset="0.99" stop-color="#643925"/></linearGradient><linearGradient id="linear-gradient-2" x1="661.63" y1="337.43" x2="670.33" y2="337.43" gradientUnits="userSpaceOnUse"><stop offset="0" stop-color="#a36139"/><stop offset="1" stop-color="#8f542a"/></linearGradient></defs><title>141964996_455940938764605_2228445549129837004_n</title><path class="cls-1" d="M654.71,319.66s1.83,2.75,7.42,6.44a4.78,4.78,0,0,1,2.08,2.45,3.64,3.64,0,0,1,.12,1.47,4.67,4.67,0,0,1-5.34,4,5.74,5.74,0,0,1-3.91-3A13.49,13.49,0,0,1,654.71,319.66Z" transform="translate(-653.38 -319.13)"/><path class="cls-2" d="M692.93,369.63C688.73,365.9,671,350,666.77,343a.05.05,0,0,1,0-.08c.25-.16,1.49-.94,2.2-1.49a21.78,21.78,0,0,0,1.82-1.59,0,0,0,0,1,.08,0c3.2,3.56,6.52,7.91,22.24,29.61A.14.14,0,0,1,692.93,369.63Z" transform="translate(-653.38 -319.13)"/><path class="cls-3" d="M670.3,339.06l-5.48-6.45a.12.12,0,0,0-.17,0,11.12,11.12,0,0,1-1.48,1.3,12.05,12.05,0,0,1-1.48,1,.11.11,0,0,0,0,.15l4.47,7.24a.11.11,0,0,0,.17,0,24,24,0,0,1,2-1.68c.7-.52,1.37-1,2-1.35A.12.12,0,0,0,670.3,339.06Z" transform="translate(-653.38 -319.13)"/><path class="cls-4" d="M668.52,337a6.51,6.51,0,0,0,1.11,2.62,5.19,5.19,0,0,0,.62-.41.07.07,0,0,0,0-.11" transform="translate(-653.38 -319.13)"/><path class="cls-4" d="M670.31,340.36c.3,1.52,7.51,8.21,7.51,8.21-1.4-1.94-2.93-3.93-4.6-5.95-.78-1-1.57-1.87-2.35-2.76h0Z" transform="translate(-653.38 -319.13)"/></svg>